<?xml version="1.0" encoding="UTF-8"?>
<svg width="512px" height="512px" viewBox="0 0 512 512" version="1.1" xmlns="http://www.w3.org/2000/svg" xmlns:xlink="http://www.w3.org/1999/xlink">
    <title>Artboard</title>
    <defs>
        <linearGradient x1="50%" y1="0%" x2="50%" y2="100%" id="linearGradient-1">
            <stop stop-color="#1A1A1A" offset="0%"></stop>
            <stop stop-color="#151515" offset="9.03378884%"></stop>
            <stop stop-color="#111111" offset="100%"></stop>
        </linearGradient>
        <circle id="path-2" cx="141.947844" cy="141.947844" r="141.947844"></circle>
        <linearGradient x1="95.3585152%" y1="50%" x2="3.7133757%" y2="50%" id="linearGradient-4">
            <stop stop-color="#FF2C2C" offset="0%"></stop>
            <stop stop-color="#252525" offset="100%"></stop>
        </linearGradient>
        <linearGradient x1="95.3585152%" y1="50%" x2="3.7133757%" y2="50%" id="linearGradient-5">
            <stop stop-color="#FFFFFF" offset="0%"></stop>
            <stop stop-color="#FFFFFF" offset="100%"></stop>
        </linearGradient>
    </defs>
    <g id="Artboard" stroke="none" stroke-width="1" fill="none" fill-rule="evenodd">
        <g id="Group-9" transform="translate(50.000000, 50.000000)">
            <path d="M118.630969,-4.79283315e-15 L293.369031,4.79283315e-15 C334.619603,-2.78477408e-15 349.578057,4.29504107 364.65865,12.3602303 C379.739243,20.4254196 391.57458,32.260757 399.63977,47.3413498 C407.704959,62.4219425 412,77.3803969 412,118.630969 L412,293.369031 C412,334.619603 407.704959,349.578057 399.63977,364.65865 C391.57458,379.739243 379.739243,391.57458 364.65865,399.63977 C349.578057,407.704959 334.619603,412 293.369031,412 L118.630969,412 C77.3803969,412 62.4219425,407.704959 47.3413498,399.63977 C32.260757,391.57458 20.4254196,379.739243 12.3602303,364.65865 C4.29504107,349.578057 1.85651606e-15,334.619603 -3.1952221e-15,293.369031 L3.1952221e-15,118.630969 C-1.85651606e-15,77.3803969 4.29504107,62.4219425 12.3602303,47.3413498 C20.4254196,32.260757 32.260757,20.4254196 47.3413498,12.3602303 C62.4219425,4.29504107 77.3803969,2.78477408e-15 118.630969,-4.79283315e-15 Z" id="Rectangle" fill="url(#linearGradient-1)"></path>
            <g id="Group-2" transform="translate(64.052156, 64.052156)">
                <mask id="mask-3" fill="white">
                    <use xlink:href="#path-2"></use>
                </mask>
                <g id="Mask"></g>
                <g mask="url(#mask-3)">
                    <g transform="translate(-270.258776, -13.017051)">
                        <polygon id="Rectangle" fill="url(#linearGradient-5)" transform="translate(411.896690, 154.916052) rotate(-270.000000) translate(-411.896690, -154.916052) " points="257.241725 129.596674 566.551655 129.596674 566.551655 180.23543 257.241725 180.23543"></polygon>
                        <rect id="Rectangle-Copy-5" fill="#FFFFFF" transform="translate(638.465972, 25.318551) rotate(-180.000000) translate(-638.465972, -25.318551) " x="453.138564" y="3.97903932e-13" width="370.654816" height="50.6371022"></rect>
                        <rect id="Rectangle-Copy-11" fill="#FFFFFF" transform="translate(638.465972, 90.050517) rotate(-180.000000) translate(-638.465972, -90.050517) " x="453.138564" y="64.7319657" width="370.654816" height="50.6371022"></rect>
                        <rect id="Rectangle-Copy-12" fill="#FFFFFF" transform="translate(638.465972, 154.782483) rotate(-180.000000) translate(-638.465972, -154.782483) " x="453.138564" y="129.463931" width="370.654816" height="50.6371022"></rect>
                        <rect id="Rectangle-Copy-13" fill="#FFFFFF" transform="translate(638.465972, 219.514448) rotate(-180.000000) translate(-638.465972, -219.514448) " x="453.138564" y="194.195897" width="370.654816" height="50.6371022"></rect>
                        <rect id="Rectangle-Copy-14" fill="#FFFFFF" transform="translate(638.465972, 284.246414) rotate(-180.000000) translate(-638.465972, -284.246414) " x="453.138564" y="258.927863" width="370.654816" height="50.6371022"></rect>
                        <rect id="Rectangle-Copy-6" fill="#FFFFFF" transform="translate(185.327408, 25.318551) rotate(-180.000000) translate(-185.327408, -25.318551) " x="0" y="0" width="370.654816" height="50.6371022"></rect>
                        <rect id="Rectangle-Copy-7" fill="#FFFFFF" transform="translate(185.327408, 90.050517) rotate(-180.000000) translate(-185.327408, -90.050517) " x="0" y="64.7319657" width="370.654816" height="50.6371022"></rect>
                        <rect id="Rectangle-Copy-8" fill="#FFFFFF" transform="translate(185.327408, 154.782483) rotate(-180.000000) translate(-185.327408, -154.782483) " x="0" y="129.463931" width="370.654816" height="50.6371022"></rect>
                        <rect id="Rectangle-Copy-9" fill="#FFFFFF" transform="translate(185.327408, 219.514448) rotate(-180.000000) translate(-185.327408, -219.514448) " x="0" y="194.195897" width="370.654816" height="50.6371022"></rect>
                        <rect id="Rectangle-Copy-10" fill="#FFFFFF" transform="translate(185.327408, 284.246414) rotate(-180.000000) translate(-185.327408, -284.246414) " x="0" y="258.927863" width="370.654816" height="50.6371022"></rect>
                    </g>
                </g>
            </g>
        </g>
    </g>
</svg>